<svg width="1451" height="366" viewBox="0 0 1451 366" fill="none" xmlns="http://www.w3.org/2000/svg">
<ellipse cx="208" cy="252" rx="208" ry="96" fill="#AF0880"/>
<g filter="url(#filter0_d_1155_767)">
<path d="M246.8 226.375H168.2C157.35 226.375 148.55 230.825 148.55 236.312V276.062C148.55 281.55 157.35 286 168.2 286H246.8C257.65 286 266.45 281.55 266.45 276.062V236.312C266.45 230.825 257.65 226.375 246.8 226.375ZM128.9 136.938C128.9 131.45 120.1 127 109.25 127H30.65C19.7995 127 11 131.45 11 136.938V176.688C11 182.175 19.7995 186.625 30.65 186.625H89.4281L134.353 226.387C141.169 220.468 153.708 216.438 168.2 216.438H168.372L128.9 181.504V166.75H266.45V146.875H128.9V136.938ZM384.35 127H305.75C294.9 127 286.1 131.45 286.1 136.938V176.688C286.1 182.175 294.9 186.625 305.75 186.625H384.35C395.2 186.625 404 182.175 404 176.688V136.938C404 131.45 395.2 127 384.35 127Z" fill="white"/>
</g>
<path d="M701.845 293.1C684.045 293.1 668.445 289.6 655.045 282.6C641.845 275.4 631.545 265.6 624.145 253.2C616.945 240.8 613.345 226.7 613.345 210.9C613.345 194.9 616.845 180.8 623.845 168.6C631.045 156.2 640.845 146.5 653.245 139.5C665.845 132.5 680.145 129 696.145 129C711.745 129 725.645 132.4 737.845 139.2C750.045 146 759.645 155.6 766.645 168C773.645 180.4 777.145 195 777.145 211.8C777.145 213.4 777.045 215.2 776.845 217.2C776.845 219.2 776.745 221.1 776.545 222.9H643.045V198H756.745L742.045 205.8C742.245 196.6 740.345 188.5 736.345 181.5C732.345 174.5 726.845 169 719.845 165C713.045 161 705.145 159 696.145 159C686.945 159 678.845 161 671.845 165C665.045 169 659.645 174.6 655.645 181.8C651.845 188.8 649.945 197.1 649.945 206.7V212.7C649.945 222.3 652.145 230.8 656.545 238.2C660.945 245.6 667.145 251.3 675.145 255.3C683.145 259.3 692.345 261.3 702.745 261.3C711.745 261.3 719.845 259.9 727.045 257.1C734.245 254.3 740.645 249.9 746.245 243.9L766.345 267C759.145 275.4 750.045 281.9 739.045 286.5C728.245 290.9 715.845 293.1 701.845 293.1ZM886.666 293.1C873.266 293.1 860.366 291.4 847.966 288C835.766 284.4 826.066 280.1 818.866 275.1L833.266 246.6C840.466 251.2 849.066 255 859.066 258C869.066 261 879.066 262.5 889.066 262.5C900.866 262.5 909.366 260.9 914.566 257.7C919.966 254.5 922.666 250.2 922.666 244.8C922.666 240.4 920.866 237.1 917.266 234.9C913.666 232.5 908.966 230.7 903.166 229.5C897.366 228.3 890.866 227.2 883.666 226.2C876.666 225.2 869.566 223.9 862.366 222.3C855.366 220.5 848.966 218 843.166 214.8C837.366 211.4 832.666 206.9 829.066 201.3C825.466 195.7 823.666 188.3 823.666 179.1C823.666 168.9 826.566 160.1 832.366 152.7C838.166 145.1 846.266 139.3 856.666 135.3C867.266 131.1 879.766 129 894.166 129C904.966 129 915.866 130.2 926.866 132.6C937.866 135 946.966 138.4 954.166 142.8L939.766 171.3C932.166 166.7 924.466 163.6 916.666 162C909.066 160.2 901.466 159.3 893.866 159.3C882.466 159.3 873.966 161 868.366 164.4C862.966 167.8 860.266 172.1 860.266 177.3C860.266 182.1 862.066 185.7 865.666 188.1C869.266 190.5 873.966 192.4 879.766 193.8C885.566 195.2 891.966 196.4 898.966 197.4C906.166 198.2 913.266 199.5 920.266 201.3C927.266 203.1 933.666 205.6 939.466 208.8C945.466 211.8 950.266 216.1 953.866 221.7C957.466 227.3 959.266 234.6 959.266 243.6C959.266 253.6 956.266 262.3 950.266 269.7C944.466 277.1 936.166 282.9 925.366 287.1C914.566 291.1 901.666 293.1 886.666 293.1ZM1075.86 293.1C1058.26 293.1 1044.66 288.6 1035.06 279.6C1025.46 270.4 1020.66 256.9 1020.66 239.1V95.4H1058.16V238.2C1058.16 245.8 1060.06 251.7 1063.86 255.9C1067.86 260.1 1073.36 262.2 1080.36 262.2C1088.76 262.2 1095.76 260 1101.36 255.6L1111.86 282.3C1107.46 285.9 1102.06 288.6 1095.66 290.4C1089.26 292.2 1082.66 293.1 1075.86 293.1ZM994.261 162V132H1101.06V162H994.261ZM1166.71 291V130.8H1204.21V291H1166.71ZM1185.61 104.4C1178.61 104.4 1172.81 102.2 1168.21 97.8C1163.81 93.4 1161.61 88.1 1161.61 81.9C1161.61 75.5 1163.81 70.2 1168.21 66C1172.81 61.6 1178.61 59.4 1185.61 59.4C1192.61 59.4 1198.31 61.5 1202.71 65.7C1207.31 69.7 1209.61 74.8 1209.61 81C1209.61 87.6 1207.41 93.2 1203.01 97.8C1198.61 102.2 1192.81 104.4 1185.61 104.4ZM1376.13 291V258.6L1374.03 251.7V195C1374.03 184 1370.73 175.5 1364.13 169.5C1357.53 163.3 1347.53 160.2 1334.13 160.2C1325.13 160.2 1316.23 161.6 1307.43 164.4C1298.83 167.2 1291.53 171.1 1285.53 176.1L1270.83 148.8C1279.43 142.2 1289.63 137.3 1301.43 134.1C1313.43 130.7 1325.83 129 1338.63 129C1361.83 129 1379.73 134.6 1392.33 145.8C1405.13 156.8 1411.53 173.9 1411.53 197.1V291H1376.13ZM1325.73 293.1C1313.73 293.1 1303.23 291.1 1294.23 287.1C1285.23 282.9 1278.23 277.2 1273.23 270C1268.43 262.6 1266.03 254.3 1266.03 245.1C1266.03 236.1 1268.13 228 1272.33 220.8C1276.73 213.6 1283.83 207.9 1293.63 203.7C1303.43 199.5 1316.43 197.4 1332.63 197.4H1379.13V222.3H1335.33C1322.53 222.3 1313.93 224.4 1309.53 228.6C1305.13 232.6 1302.93 237.6 1302.93 243.6C1302.93 250.4 1305.63 255.8 1311.03 259.8C1316.43 263.8 1323.93 265.8 1333.53 265.8C1342.73 265.8 1350.93 263.7 1358.13 259.5C1365.53 255.3 1370.83 249.1 1374.03 240.9L1380.33 263.4C1376.73 272.8 1370.23 280.1 1360.83 285.3C1351.63 290.5 1339.93 293.1 1325.73 293.1Z" fill="white"/>
<defs>
<filter id="filter0_d_1155_767" x="7" y="127" width="401" height="183" filterUnits="userSpaceOnUse" color-interpolation-filters="sRGB">
<feFlood flood-opacity="0" result="BackgroundImageFix"/>
<feColorMatrix in="SourceAlpha" type="matrix" values="0 0 0 0 0 0 0 0 0 0 0 0 0 0 0 0 0 0 127 0" result="hardAlpha"/>
<feOffset dy="20"/>
<feGaussianBlur stdDeviation="2"/>
<feComposite in2="hardAlpha" operator="out"/>
<feColorMatrix type="matrix" values="0 0 0 0 0 0 0 0 0 0 0 0 0 0 0 0 0 0 0.25 0"/>
<feBlend mode="normal" in2="BackgroundImageFix" result="effect1_dropShadow_1155_767"/>
<feBlend mode="normal" in="SourceGraphic" in2="effect1_dropShadow_1155_767" result="shape"/>
</filter>
</defs>
</svg>
