<svg width="784" height="268" viewBox="0 0 784 268" fill="none" xmlns="http://www.w3.org/2000/svg">
<rect width="215" height="190" rx="32" fill="#F40CB3" fill-opacity="0.48"/>
<rect x="99" y="23" width="215" height="190" rx="32" fill="#06DEB8" fill-opacity="0.48"/>
<rect x="56" y="78" width="215" height="190" rx="32" fill="#C50000" fill-opacity="0.48"/>
<path d="M455.897 128.75C455.897 131.35 455.747 134.1 455.447 137H389.747C390.247 145.1 392.997 151.45 397.997 156.05C403.097 160.55 409.247 162.8 416.447 162.8C422.347 162.8 427.247 161.45 431.147 158.75C435.147 155.95 437.947 152.25 439.547 147.65H454.247C452.047 155.55 447.647 162 441.047 167C434.447 171.9 426.247 174.35 416.447 174.35C408.647 174.35 401.647 172.6 395.447 169.1C389.347 165.6 384.547 160.65 381.047 154.25C377.547 147.75 375.797 140.25 375.797 131.75C375.797 123.25 377.497 115.8 380.897 109.4C384.297 103 389.047 98.1 395.147 94.7C401.347 91.2 408.447 89.45 416.447 89.45C424.247 89.45 431.147 91.15 437.147 94.55C443.147 97.95 447.747 102.65 450.947 108.65C454.247 114.55 455.897 121.25 455.897 128.75ZM441.797 125.9C441.797 120.7 440.647 116.25 438.347 112.55C436.047 108.75 432.897 105.9 428.897 104C424.997 102 420.647 101 415.847 101C408.947 101 403.047 103.2 398.147 107.6C393.347 112 390.597 118.1 389.897 125.9H441.797ZM515.014 174.35C508.714 174.35 503.064 173.3 498.064 171.2C493.064 169 489.114 166 486.214 162.2C483.314 158.3 481.714 153.85 481.414 148.85H495.514C495.914 152.95 497.814 156.3 501.214 158.9C504.714 161.5 509.264 162.8 514.864 162.8C520.064 162.8 524.164 161.65 527.164 159.35C530.164 157.05 531.664 154.15 531.664 150.65C531.664 147.05 530.064 144.4 526.864 142.7C523.664 140.9 518.714 139.15 512.014 137.45C505.914 135.85 500.914 134.25 497.014 132.65C493.214 130.95 489.914 128.5 487.114 125.3C484.414 122 483.064 117.7 483.064 112.4C483.064 108.2 484.314 104.35 486.814 100.85C489.314 97.35 492.864 94.6 497.464 92.6C502.064 90.5 507.314 89.45 513.214 89.45C522.314 89.45 529.664 91.75 535.264 96.35C540.864 100.95 543.864 107.25 544.264 115.25H530.614C530.314 110.95 528.564 107.5 525.364 104.9C522.264 102.3 518.064 101 512.764 101C507.864 101 503.964 102.05 501.064 104.15C498.164 106.25 496.714 109 496.714 112.4C496.714 115.1 497.564 117.35 499.264 119.15C501.064 120.85 503.264 122.25 505.864 123.35C508.564 124.35 512.264 125.5 516.964 126.8C522.864 128.4 527.664 130 531.364 131.6C535.064 133.1 538.214 135.4 540.814 138.5C543.514 141.6 544.914 145.65 545.014 150.65C545.014 155.15 543.764 159.2 541.264 162.8C538.764 166.4 535.214 169.25 530.614 171.35C526.114 173.35 520.914 174.35 515.014 174.35ZM592.933 102.05V150.5C592.933 154.5 593.783 157.35 595.483 159.05C597.183 160.65 600.133 161.45 604.333 161.45H614.383V173H602.083C594.483 173 588.783 171.25 584.983 167.75C581.183 164.25 579.283 158.5 579.283 150.5V102.05H568.633V90.8H579.283V70.1H592.933V90.8H614.383V102.05H592.933ZM649.972 77.45C647.372 77.45 645.172 76.55 643.372 74.75C641.572 72.95 640.672 70.75 640.672 68.15C640.672 65.55 641.572 63.35 643.372 61.55C645.172 59.75 647.372 58.85 649.972 58.85C652.472 58.85 654.572 59.75 656.272 61.55C658.072 63.35 658.972 65.55 658.972 68.15C658.972 70.75 658.072 72.95 656.272 74.75C654.572 76.55 652.472 77.45 649.972 77.45ZM656.572 90.8V173H642.922V90.8H656.572ZM686.736 131.6C686.736 123.2 688.436 115.85 691.836 109.55C695.236 103.15 699.886 98.2 705.786 94.7C711.786 91.2 718.436 89.45 725.736 89.45C732.936 89.45 739.186 91 744.486 94.1C749.786 97.2 753.736 101.1 756.336 105.8V90.8H770.136V173H756.336V157.7C753.636 162.5 749.586 166.5 744.186 169.7C738.886 172.8 732.686 174.35 725.586 174.35C718.286 174.35 711.686 172.55 705.786 168.95C699.886 165.35 695.236 160.3 691.836 153.8C688.436 147.3 686.736 139.9 686.736 131.6ZM756.336 131.75C756.336 125.55 755.086 120.15 752.586 115.55C750.086 110.95 746.686 107.45 742.386 105.05C738.186 102.55 733.536 101.3 728.436 101.3C723.336 101.3 718.686 102.5 714.486 104.9C710.286 107.3 706.936 110.8 704.436 115.4C701.936 120 700.686 125.4 700.686 131.6C700.686 137.9 701.936 143.4 704.436 148.1C706.936 152.7 710.286 156.25 714.486 158.75C718.686 161.15 723.336 162.35 728.436 162.35C733.536 162.35 738.186 161.15 742.386 158.75C746.686 156.25 750.086 152.7 752.586 148.1C755.086 143.4 756.336 137.95 756.336 131.75Z" fill="white"/>
</svg>
