<svg width="208" height="58" viewBox="0 0 208 58" fill="none" xmlns="http://www.w3.org/2000/svg">
<path d="M110.272 30.144C110.272 30.912 110.251 31.488 110.208 31.872H95.2C95.2427 33.4293 95.584 34.7413 96.224 35.808C96.864 36.8747 97.7067 37.6747 98.752 38.208C99.7973 38.7413 100.939 39.008 102.176 39.008C103.883 39.008 105.312 38.592 106.464 37.76C107.616 36.9067 108.341 35.7547 108.64 34.304H110.144C109.803 36.0747 108.928 37.5147 107.52 38.624C106.112 39.712 104.331 40.256 102.176 40.256C100.555 40.256 99.104 39.8933 97.824 39.168C96.544 38.4427 95.5413 37.408 94.816 36.064C94.0907 34.6987 93.728 33.1093 93.728 31.296C93.728 29.4827 94.08 27.904 94.784 26.56C95.5093 25.216 96.512 24.192 97.792 23.488C99.072 22.7627 100.533 22.4 102.176 22.4C103.84 22.4 105.28 22.7627 106.496 23.488C107.733 24.192 108.672 25.1413 109.312 26.336C109.952 27.5093 110.272 28.7787 110.272 30.144ZM108.832 30.688C108.896 29.152 108.619 27.8507 108 26.784C107.403 25.7173 106.581 24.928 105.536 24.416C104.491 23.8827 103.36 23.616 102.144 23.616C100.928 23.616 99.7973 23.8827 98.752 24.416C97.728 24.928 96.8853 25.7173 96.224 26.784C95.584 27.8507 95.2427 29.152 95.2 30.688H108.832ZM122.976 40.256C121.035 40.256 119.445 39.8293 118.208 38.976C116.992 38.1227 116.309 36.9067 116.16 35.328H117.632C117.739 36.4587 118.251 37.3547 119.168 38.016C120.107 38.6773 121.376 39.008 122.976 39.008C124.299 39.008 125.344 38.6773 126.112 38.016C126.901 37.3333 127.296 36.5013 127.296 35.52C127.296 34.8373 127.083 34.2827 126.656 33.856C126.251 33.408 125.739 33.0667 125.12 32.832C124.501 32.5973 123.659 32.3413 122.592 32.064C121.312 31.7227 120.277 31.392 119.488 31.072C118.699 30.7307 118.027 30.2293 117.472 29.568C116.917 28.9067 116.64 28.0213 116.64 26.912C116.64 26.1013 116.885 25.3547 117.376 24.672C117.867 23.968 118.549 23.4133 119.424 23.008C120.299 22.6027 121.291 22.4 122.4 22.4C124.213 22.4 125.675 22.8587 126.784 23.776C127.915 24.672 128.523 25.92 128.608 27.52H127.168C127.104 26.368 126.656 25.4293 125.824 24.704C124.992 23.9787 123.84 23.616 122.368 23.616C121.131 23.616 120.107 23.936 119.296 24.576C118.485 25.216 118.08 25.9947 118.08 26.912C118.08 27.7227 118.304 28.384 118.752 28.896C119.221 29.3867 119.787 29.7707 120.448 30.048C121.131 30.304 122.027 30.5813 123.136 30.88C124.352 31.2 125.323 31.52 126.048 31.84C126.795 32.1387 127.424 32.5867 127.936 33.184C128.448 33.76 128.704 34.5387 128.704 35.52C128.704 36.416 128.459 37.2267 127.968 37.952C127.477 38.6773 126.795 39.2427 125.92 39.648C125.045 40.0533 124.064 40.256 122.976 40.256ZM137.794 23.872V35.36C137.794 36.64 138.029 37.5253 138.498 38.016C138.968 38.4853 139.8 38.72 140.994 38.72H142.946V40H140.77C139.256 40 138.136 39.648 137.41 38.944C136.706 38.2187 136.354 37.024 136.354 35.36V23.872H133.73V22.624H136.354V18.208H137.794V22.624H142.946V23.872H137.794ZM150.04 18.752C149.699 18.752 149.411 18.6453 149.176 18.432C148.941 18.1973 148.824 17.888 148.824 17.504C148.824 17.1413 148.941 16.8427 149.176 16.608C149.411 16.3733 149.699 16.256 150.04 16.256C150.381 16.256 150.669 16.3733 150.904 16.608C151.139 16.8427 151.256 17.1413 151.256 17.504C151.256 17.888 151.139 18.1973 150.904 18.432C150.669 18.6453 150.381 18.752 150.04 18.752ZM150.744 22.624V40H149.304V22.624H150.744ZM157.687 31.296C157.687 29.504 158.039 27.936 158.743 26.592C159.468 25.248 160.46 24.2133 161.719 23.488C162.999 22.7627 164.449 22.4 166.071 22.4C167.905 22.4 169.463 22.848 170.743 23.744C172.023 24.64 172.919 25.7813 173.431 27.168V22.624H174.871V40H173.431V35.424C172.919 36.832 172.012 37.9947 170.711 38.912C169.431 39.808 167.884 40.256 166.071 40.256C164.449 40.256 162.999 39.8933 161.719 39.168C160.46 38.4213 159.468 37.376 158.743 36.032C158.039 34.6667 157.687 33.088 157.687 31.296ZM173.431 31.296C173.431 29.7813 173.111 28.448 172.471 27.296C171.852 26.1227 170.999 25.2267 169.911 24.608C168.823 23.968 167.607 23.648 166.263 23.648C164.855 23.648 163.617 23.9573 162.551 24.576C161.484 25.1733 160.652 26.048 160.055 27.2C159.457 28.352 159.159 29.7173 159.159 31.296C159.159 32.8747 159.457 34.24 160.055 35.392C160.652 36.544 161.484 37.4293 162.551 38.048C163.639 38.6667 164.876 38.976 166.263 38.976C167.607 38.976 168.823 38.6667 169.911 38.048C171.02 37.408 171.884 36.512 172.503 35.36C173.121 34.1867 173.431 32.832 173.431 31.296Z" fill="white"/>
<g clip-path="url(#clip0_1035_1447)">
<path d="M39.6306 0H6.92994C3.10264 0 0 3.10059 0 6.92537V34.194C0 38.0188 3.10264 41.1194 6.92994 41.1194H39.6306C43.4579 41.1194 46.5605 38.0188 46.5605 34.194V6.92537C46.5605 3.10059 43.4579 0 39.6306 0Z" fill="#F40CB3" fill-opacity="0.48"/>
<path d="M61.07 4.97754H28.3694C24.5421 4.97754 21.4395 8.07813 21.4395 11.9029V39.1716C21.4395 42.9963 24.5421 46.0969 28.3694 46.0969H61.07C64.8973 46.0969 68 42.9963 68 39.1716V11.9029C68 8.07813 64.8973 4.97754 61.07 4.97754Z" fill="#06DEB8" fill-opacity="0.48"/>
<path d="M51.7575 16.8809H19.0569C15.2296 16.8809 12.127 19.9815 12.127 23.8062V51.0749C12.127 54.8997 15.2296 58.0003 19.0569 58.0003H51.7575C55.5848 58.0003 58.6875 54.8997 58.6875 51.0749V23.8062C58.6875 19.9815 55.5848 16.8809 51.7575 16.8809Z" fill="#C50000" fill-opacity="0.48"/>
</g>
<defs>
<clipPath id="clip0_1035_1447">
<rect width="68" height="58" fill="white"/>
</clipPath>
</defs>
</svg>
