<svg width="997" height="305" viewBox="0 0 997 305" fill="none" xmlns="http://www.w3.org/2000/svg">
<g clip-path="url(#clip0_1111_1010)">
<path d="M123.75 173.125H82.5C76.8056 173.125 72.1875 177.743 72.1875 183.438V224.688C72.1875 230.382 76.8056 235 82.5 235H123.75C129.444 235 134.062 230.382 134.062 224.688V183.438C134.062 177.743 129.444 173.125 123.75 173.125ZM61.875 80.3125C61.875 74.6181 57.2569 70 51.5625 70H10.3125C4.61807 70 0 74.6181 0 80.3125V121.562C0 127.257 4.61807 131.875 10.3125 131.875H41.1598L64.7367 173.138C68.3139 166.996 74.8945 162.812 82.5 162.812H82.5902L61.875 126.561V111.25H134.062V90.625H61.875V80.3125ZM195.938 70H154.688C148.993 70 144.375 74.6181 144.375 80.3125V121.562C144.375 127.257 148.993 131.875 154.688 131.875H195.938C201.632 131.875 206.25 127.257 206.25 121.562V80.3125C206.25 74.6181 201.632 70 195.938 70Z" fill="#AF0880"/>
<path d="M200.17 94.7495C198.293 96.4521 200.443 86.8159 195.526 81.3953C190.609 75.9747 181.372 76.5131 183.249 74.8105C185.126 73.1078 194.007 72.8918 198.924 78.3124C203.842 83.733 202.047 93.0468 200.17 94.7495Z" fill="#F4F4F4"/>
</g>
<path d="M394.75 243.5C380.583 243.5 368.083 240.583 357.25 234.75C346.583 228.917 338.25 220.917 332.25 210.75C326.417 200.583 323.5 188.917 323.5 175.75C323.5 162.583 326.333 150.917 332 140.75C337.833 130.583 345.75 122.667 355.75 117C365.917 111.167 377.333 108.25 390 108.25C402.833 108.25 414.167 111.083 424 116.75C433.833 122.417 441.5 130.417 447 140.75C452.667 150.917 455.5 162.833 455.5 176.5C455.5 177.5 455.417 178.667 455.25 180C455.25 181.333 455.167 182.583 455 183.75H342.25V166.5H442.5L432.75 172.5C432.917 164 431.167 156.417 427.5 149.75C423.833 143.083 418.75 137.917 412.25 134.25C405.917 130.417 398.5 128.5 390 128.5C381.667 128.5 374.25 130.417 367.75 134.25C361.25 137.917 356.167 143.167 352.5 150C348.833 156.667 347 164.333 347 173V177C347 185.833 349 193.75 353 200.75C357.167 207.583 362.917 212.917 370.25 216.75C377.583 220.583 386 222.5 395.5 222.5C403.333 222.5 410.417 221.167 416.75 218.5C423.25 215.833 428.917 211.833 433.75 206.5L447 222C441 229 433.5 234.333 424.5 238C415.667 241.667 405.75 243.5 394.75 243.5ZM546.826 243.5C535.826 243.5 525.326 242 515.326 239C505.493 236 497.743 232.333 492.076 228L502.076 209C507.743 212.833 514.743 216.083 523.076 218.75C531.41 221.417 539.91 222.75 548.576 222.75C559.743 222.75 567.743 221.167 572.576 218C577.576 214.833 580.076 210.417 580.076 204.75C580.076 200.583 578.576 197.333 575.576 195C572.576 192.667 568.576 190.917 563.576 189.75C558.743 188.583 553.326 187.583 547.326 186.75C541.326 185.75 535.326 184.583 529.326 183.25C523.326 181.75 517.826 179.75 512.826 177.25C507.826 174.583 503.826 171 500.826 166.5C497.826 161.833 496.326 155.667 496.326 148C496.326 140 498.576 133 503.076 127C507.576 121 513.91 116.417 522.076 113.25C530.41 109.917 540.243 108.25 551.576 108.25C560.243 108.25 568.993 109.333 577.826 111.5C586.826 113.5 594.16 116.417 599.826 120.25L589.576 139.25C583.576 135.25 577.326 132.5 570.826 131C564.326 129.5 557.826 128.75 551.326 128.75C540.826 128.75 532.993 130.5 527.826 134C522.66 137.333 520.076 141.667 520.076 147C520.076 151.5 521.576 155 524.576 157.5C527.743 159.833 531.743 161.667 536.576 163C541.576 164.333 547.076 165.5 553.076 166.5C559.076 167.333 565.076 168.5 571.076 170C577.076 171.333 582.493 173.25 587.326 175.75C592.326 178.25 596.326 181.75 599.326 186.25C602.493 190.75 604.076 196.75 604.076 204.25C604.076 212.25 601.743 219.167 597.076 225C592.41 230.833 585.826 235.417 577.326 238.75C568.826 241.917 558.66 243.5 546.826 243.5ZM699.57 243.5C686.237 243.5 675.904 239.917 668.57 232.75C661.237 225.583 657.57 215.333 657.57 202V80.5H681.57V201C681.57 208.167 683.32 213.667 686.82 217.5C690.487 221.333 695.654 223.25 702.32 223.25C709.82 223.25 716.07 221.167 721.07 217L728.57 234.25C724.904 237.417 720.487 239.75 715.32 241.25C710.32 242.75 705.07 243.5 699.57 243.5ZM635.07 129.25V109.5H719.57V129.25H635.07ZM777.586 242V109.5H801.586V242H777.586ZM789.586 84C784.919 84 781.003 82.5 777.836 79.5C774.836 76.5 773.336 72.8333 773.336 68.5C773.336 64 774.836 60.25 777.836 57.25C781.003 54.25 784.919 52.75 789.586 52.75C794.253 52.75 798.086 54.25 801.086 57.25C804.253 60.0833 805.836 63.6667 805.836 68C805.836 72.5 804.336 76.3333 801.336 79.5C798.336 82.5 794.419 84 789.586 84ZM949.66 242V214L948.41 208.75V161C948.41 150.833 945.41 143 939.41 137.5C933.577 131.833 924.743 129 912.91 129C905.077 129 897.41 130.333 889.91 133C882.41 135.5 876.077 138.917 870.91 143.25L860.91 125.25C867.743 119.75 875.91 115.583 885.41 112.75C895.077 109.75 905.16 108.25 915.66 108.25C933.827 108.25 947.827 112.667 957.66 121.5C967.493 130.333 972.41 143.833 972.41 162V242H949.66ZM906.16 243.5C896.327 243.5 887.66 241.833 880.16 238.5C872.827 235.167 867.16 230.583 863.16 224.75C859.16 218.75 857.16 212 857.16 204.5C857.16 197.333 858.827 190.833 862.16 185C865.66 179.167 871.243 174.5 878.91 171C886.743 167.5 897.243 165.75 910.41 165.75H952.41V183H911.41C899.41 183 891.327 185 887.16 189C882.993 193 880.91 197.833 880.91 203.5C880.91 210 883.493 215.25 888.66 219.25C893.827 223.083 900.993 225 910.16 225C919.16 225 926.993 223 933.66 219C940.493 215 945.41 209.167 948.41 201.5L953.16 218C949.993 225.833 944.41 232.083 936.41 236.75C928.41 241.25 918.327 243.5 906.16 243.5Z" fill="white"/>
<defs>
<clipPath id="clip0_1111_1010">
<rect width="206.25" height="165" fill="white" transform="translate(0 70)"/>
</clipPath>
</defs>
</svg>
