<svg width="1464" height="366" viewBox="0 0 1464 366" fill="none" xmlns="http://www.w3.org/2000/svg">
<ellipse cx="220.5" cy="238.5" rx="220.5" ry="74.5" fill="#AF0880"/>
<g filter="url(#filter0_d_1183_800)">
<path d="M259.8 225.375H181.2C170.35 225.375 161.55 229.601 161.55 234.812V272.562C161.55 277.774 170.35 282 181.2 282H259.8C270.65 282 279.45 277.774 279.45 272.562V234.812C279.45 229.601 270.65 225.375 259.8 225.375ZM141.9 140.437C141.9 135.226 133.1 131 122.25 131H43.65C32.7995 131 24 135.226 24 140.437V178.187C24 183.399 32.7995 187.625 43.65 187.625H102.428L147.353 225.387C154.169 219.766 166.708 215.937 181.2 215.937H181.372L141.9 182.762V168.75H279.45V149.875H141.9V140.437ZM397.35 131H318.75C307.9 131 299.1 135.226 299.1 140.437V178.187C299.1 183.399 307.9 187.625 318.75 187.625H397.35C408.2 187.625 417 183.399 417 178.187V140.437C417 135.226 408.2 131 397.35 131Z" fill="white"/>
<path d="M107.576 181.501L105.344 179.625H102.428H43.65C39.1544 179.625 35.4759 178.733 33.2196 177.649C32.6606 177.381 32.2661 177.138 32 176.949V141.676C32.2661 141.487 32.6606 141.244 33.2196 140.976C35.4759 139.892 39.1544 139 43.65 139H122.25C126.746 139 130.424 139.892 132.68 140.976C133.239 141.244 133.634 141.487 133.9 141.676V149.875V157.875H141.9H271.45V160.75H141.9H133.9V168.75V182.762V186.488L136.753 188.886L162.018 210.121C156.797 211.377 152.009 213.155 147.919 215.412L107.576 181.501ZM181.2 233.375H259.8C264.296 233.375 267.974 234.267 270.23 235.351C270.789 235.619 271.184 235.862 271.45 236.051V271.324C271.184 271.513 270.789 271.756 270.23 272.024C267.974 273.108 264.296 274 259.8 274H181.2C176.704 274 173.026 273.108 170.77 272.024C170.211 271.756 169.816 271.513 169.55 271.324V236.051C169.816 235.862 170.211 235.619 170.77 235.351C173.026 234.267 176.704 233.375 181.2 233.375ZM318.75 139H397.35C401.846 139 405.524 139.892 407.78 140.976C408.339 141.244 408.734 141.487 409 141.676V176.949C408.734 177.138 408.339 177.381 407.78 177.649C405.524 178.733 401.846 179.625 397.35 179.625H318.75C314.254 179.625 310.576 178.733 308.32 177.649C307.761 177.381 307.366 177.138 307.1 176.949V141.676C307.366 141.487 307.761 141.244 308.32 140.976C310.576 139.892 314.254 139 318.75 139Z" stroke="black" stroke-width="16"/>
</g>
<path d="M714.845 293.1C697.045 293.1 681.445 289.6 668.045 282.6C654.845 275.4 644.545 265.6 637.145 253.2C629.945 240.8 626.345 226.7 626.345 210.9C626.345 194.9 629.845 180.8 636.845 168.6C644.045 156.2 653.845 146.5 666.245 139.5C678.845 132.5 693.145 129 709.145 129C724.745 129 738.645 132.4 750.845 139.2C763.045 146 772.645 155.6 779.645 168C786.645 180.4 790.145 195 790.145 211.8C790.145 213.4 790.045 215.2 789.845 217.2C789.845 219.2 789.745 221.1 789.545 222.9H656.045V198H769.745L755.045 205.8C755.245 196.6 753.345 188.5 749.345 181.5C745.345 174.5 739.845 169 732.845 165C726.045 161 718.145 159 709.145 159C699.945 159 691.845 161 684.845 165C678.045 169 672.645 174.6 668.645 181.8C664.845 188.8 662.945 197.1 662.945 206.7V212.7C662.945 222.3 665.145 230.8 669.545 238.2C673.945 245.6 680.145 251.3 688.145 255.3C696.145 259.3 705.345 261.3 715.745 261.3C724.745 261.3 732.845 259.9 740.045 257.1C747.245 254.3 753.645 249.9 759.245 243.9L779.345 267C772.145 275.4 763.045 281.9 752.045 286.5C741.245 290.9 728.845 293.1 714.845 293.1ZM899.666 293.1C886.266 293.1 873.366 291.4 860.966 288C848.766 284.4 839.066 280.1 831.866 275.1L846.266 246.6C853.466 251.2 862.066 255 872.066 258C882.066 261 892.066 262.5 902.066 262.5C913.866 262.5 922.366 260.9 927.566 257.7C932.966 254.5 935.666 250.2 935.666 244.8C935.666 240.4 933.866 237.1 930.266 234.9C926.666 232.5 921.966 230.7 916.166 229.5C910.366 228.3 903.866 227.2 896.666 226.2C889.666 225.2 882.566 223.9 875.366 222.3C868.366 220.5 861.966 218 856.166 214.8C850.366 211.4 845.666 206.9 842.066 201.3C838.466 195.7 836.666 188.3 836.666 179.1C836.666 168.9 839.566 160.1 845.366 152.7C851.166 145.1 859.266 139.3 869.666 135.3C880.266 131.1 892.766 129 907.166 129C917.966 129 928.866 130.2 939.866 132.6C950.866 135 959.966 138.4 967.166 142.8L952.766 171.3C945.166 166.7 937.466 163.6 929.666 162C922.066 160.2 914.466 159.3 906.866 159.3C895.466 159.3 886.966 161 881.366 164.4C875.966 167.8 873.266 172.1 873.266 177.3C873.266 182.1 875.066 185.7 878.666 188.1C882.266 190.5 886.966 192.4 892.766 193.8C898.566 195.2 904.966 196.4 911.966 197.4C919.166 198.2 926.266 199.5 933.266 201.3C940.266 203.1 946.666 205.6 952.466 208.8C958.466 211.8 963.266 216.1 966.866 221.7C970.466 227.3 972.266 234.6 972.266 243.6C972.266 253.6 969.266 262.3 963.266 269.7C957.466 277.1 949.166 282.9 938.366 287.1C927.566 291.1 914.666 293.1 899.666 293.1ZM1088.86 293.1C1071.26 293.1 1057.66 288.6 1048.06 279.6C1038.46 270.4 1033.66 256.9 1033.66 239.1V95.4H1071.16V238.2C1071.16 245.8 1073.06 251.7 1076.86 255.9C1080.86 260.1 1086.36 262.2 1093.36 262.2C1101.76 262.2 1108.76 260 1114.36 255.6L1124.86 282.3C1120.46 285.9 1115.06 288.6 1108.66 290.4C1102.26 292.2 1095.66 293.1 1088.86 293.1ZM1007.26 162V132H1114.06V162H1007.26ZM1179.71 291V130.8H1217.21V291H1179.71ZM1198.61 104.4C1191.61 104.4 1185.81 102.2 1181.21 97.8C1176.81 93.4 1174.61 88.1 1174.61 81.9C1174.61 75.5 1176.81 70.2 1181.21 66C1185.81 61.6 1191.61 59.4 1198.61 59.4C1205.61 59.4 1211.31 61.5 1215.71 65.7C1220.31 69.7 1222.61 74.8 1222.61 81C1222.61 87.6 1220.41 93.2 1216.01 97.8C1211.61 102.2 1205.81 104.4 1198.61 104.4ZM1389.13 291V258.6L1387.03 251.7V195C1387.03 184 1383.73 175.5 1377.13 169.5C1370.53 163.3 1360.53 160.2 1347.13 160.2C1338.13 160.2 1329.23 161.6 1320.43 164.4C1311.83 167.2 1304.53 171.1 1298.53 176.1L1283.83 148.8C1292.43 142.2 1302.63 137.3 1314.43 134.1C1326.43 130.7 1338.83 129 1351.63 129C1374.83 129 1392.73 134.6 1405.33 145.8C1418.13 156.8 1424.53 173.9 1424.53 197.1V291H1389.13ZM1338.73 293.1C1326.73 293.1 1316.23 291.1 1307.23 287.1C1298.23 282.9 1291.23 277.2 1286.23 270C1281.43 262.6 1279.03 254.3 1279.03 245.1C1279.03 236.1 1281.13 228 1285.33 220.8C1289.73 213.6 1296.83 207.9 1306.63 203.7C1316.43 199.5 1329.43 197.4 1345.63 197.4H1392.13V222.3H1348.33C1335.53 222.3 1326.93 224.4 1322.53 228.6C1318.13 232.6 1315.93 237.6 1315.93 243.6C1315.93 250.4 1318.63 255.8 1324.03 259.8C1329.43 263.8 1336.93 265.8 1346.53 265.8C1355.73 265.8 1363.93 263.7 1371.13 259.5C1378.53 255.3 1383.83 249.1 1387.03 240.9L1393.33 263.4C1389.73 272.8 1383.23 280.1 1373.83 285.3C1364.63 290.5 1352.93 293.1 1338.73 293.1Z" fill="black"/>
<defs>
<filter id="filter0_d_1183_800" x="20" y="131" width="401" height="175" filterUnits="userSpaceOnUse" color-interpolation-filters="sRGB">
<feFlood flood-opacity="0" result="BackgroundImageFix"/>
<feColorMatrix in="SourceAlpha" type="matrix" values="0 0 0 0 0 0 0 0 0 0 0 0 0 0 0 0 0 0 127 0" result="hardAlpha"/>
<feOffset dy="20"/>
<feGaussianBlur stdDeviation="2"/>
<feComposite in2="hardAlpha" operator="out"/>
<feColorMatrix type="matrix" values="0 0 0 0 0 0 0 0 0 0 0 0 0 0 0 0 0 0 0.25 0"/>
<feBlend mode="normal" in2="BackgroundImageFix" result="effect1_dropShadow_1183_800"/>
<feBlend mode="normal" in="SourceGraphic" in2="effect1_dropShadow_1183_800" result="shape"/>
</filter>
</defs>
</svg>
