<svg width="277" height="222" viewBox="0 0 277 222" fill="none" xmlns="http://www.w3.org/2000/svg">
<path d="M21.2689 85.8428L10.6345 96.4772L0 85.8428L10.6345 75.2083L21.2689 85.8428ZM276.977 206.176C276.977 210.165 275.393 213.991 272.572 216.812C269.751 219.633 265.925 221.218 261.936 221.218C257.946 221.218 254.12 219.633 251.3 216.812C248.479 213.991 246.894 210.165 246.894 206.176H276.977ZM85.8428 171.686L10.6345 96.4772L31.9034 75.2083L107.112 150.417L85.8428 171.686ZM10.6345 75.2083L85.8428 0L107.112 21.2689L31.9034 96.4772L10.6345 75.2083ZM21.2689 70.8011H171.686V100.884H21.2689V70.8011ZM276.977 176.093V206.176H246.894V176.093H276.977ZM171.686 70.8011C199.611 70.8011 226.392 81.8943 246.138 101.64C265.884 121.386 276.977 148.168 276.977 176.093H246.894C246.894 156.146 238.97 137.017 224.866 122.912C210.762 108.808 191.632 100.884 171.686 100.884V70.8011Z" fill="white"/>
</svg>
