<svg width="31" height="25" viewBox="0 0 31 25" fill="none" xmlns="http://www.w3.org/2000/svg">
<path d="M8.45982 8.65271L3.84238 12.5002L8.45982 16.3476C8.61295 16.4731 8.73973 16.6277 8.83283 16.8024C8.92593 16.9771 8.98352 17.1686 9.00228 17.3657C9.02103 17.5628 9.00058 17.7616 8.9421 17.9508C8.88363 18.14 8.78828 18.3157 8.66156 18.4678C8.53485 18.6199 8.37926 18.7454 8.20379 18.8372C8.02832 18.9289 7.83643 18.9849 7.63919 19.0021C7.44195 19.0193 7.24326 18.9972 7.05457 18.9372C6.86589 18.8773 6.69095 18.7805 6.53984 18.6526L0.539918 13.6526C0.370934 13.5119 0.234974 13.3357 0.14167 13.1365C0.0483654 12.9373 0 12.7201 0 12.5002C0 12.2802 0.0483654 12.063 0.14167 11.8638C0.234974 11.6647 0.370934 11.4884 0.539918 11.3477L6.53984 6.34774C6.84593 6.0969 7.23874 5.97718 7.63271 6.01466C8.02667 6.05215 8.38985 6.24381 8.64314 6.54788C8.89642 6.85195 9.01928 7.2438 8.98494 7.63805C8.9506 8.0323 8.76185 8.39701 8.45982 8.65271ZM30.4595 11.3477L24.4596 6.34774C24.3085 6.21981 24.1336 6.12306 23.9449 6.06308C23.7562 6.00309 23.5575 5.98105 23.3603 5.99823C23.163 6.01541 22.9711 6.07147 22.7957 6.16317C22.6202 6.25487 22.4646 6.38041 22.3379 6.53253C22.2112 6.68466 22.1158 6.86037 22.0573 7.04953C21.9989 7.23868 21.9784 7.43754 21.9972 7.63464C22.0159 7.83174 22.0735 8.02318 22.1666 8.19791C22.2597 8.37264 22.3865 8.52721 22.5396 8.65271L27.1571 12.5002L22.5396 16.3476C22.3865 16.4731 22.2597 16.6277 22.1666 16.8024C22.0735 16.9771 22.0159 17.1686 21.9972 17.3657C21.9784 17.5628 21.9989 17.7616 22.0573 17.9508C22.1158 18.14 22.2112 18.3157 22.3379 18.4678C22.4646 18.6199 22.6202 18.7454 22.7957 18.8372C22.9711 18.9289 23.163 18.9849 23.3603 19.0021C23.5575 19.0193 23.7562 18.9972 23.9449 18.9372C24.1336 18.8773 24.3085 18.7805 24.4596 18.6526L30.4595 13.6526C30.6285 13.5119 30.7645 13.3357 30.8578 13.1365C30.9511 12.9373 30.9995 12.7201 30.9995 12.5002C30.9995 12.2802 30.9511 12.063 30.8578 11.8638C30.7645 11.6647 30.6285 11.4884 30.4595 11.3477ZM20.0122 0.090322C19.827 0.0229861 19.6304 -0.00721261 19.4336 0.00145091C19.2367 0.0101144 19.0435 0.0574706 18.865 0.140814C18.6865 0.224157 18.5261 0.341855 18.3931 0.487185C18.2601 0.632515 18.157 0.802629 18.0897 0.987811L10.0898 22.9875C9.95419 23.3613 9.97255 23.7737 10.1408 24.1339C10.3091 24.4942 10.6136 24.7729 10.9873 24.9087C11.1514 24.9693 11.3249 25.0002 11.4998 25C11.8077 25.0001 12.1083 24.9053 12.3605 24.7286C12.6128 24.552 12.8045 24.3019 12.9098 24.0125L20.9097 2.0128C20.977 1.82764 21.0072 1.63103 20.9985 1.4342C20.9899 1.23736 20.9425 1.04417 20.8592 0.865639C20.7758 0.687113 20.6581 0.526754 20.5128 0.393723C20.3675 0.260692 20.1973 0.157596 20.0122 0.090322Z" fill="white"/>
</svg>
