<svg width="25" height="25" viewBox="0 0 25 25" fill="none" xmlns="http://www.w3.org/2000/svg">
<path d="M12.5 0C5.5875 0 0 5.625 0 12.5C0 15.8152 1.31696 18.9946 3.66117 21.3388C4.8219 22.4996 6.19989 23.4203 7.71646 24.0485C9.23303 24.6767 10.8585 25 12.5 25C15.8152 25 18.9946 23.683 21.3388 21.3388C23.683 18.9946 25 15.8152 25 12.5C25 10.8585 24.6767 9.23303 24.0485 7.71646C23.4203 6.19989 22.4996 4.8219 21.3388 3.66117C20.1781 2.50043 18.8001 1.57969 17.2835 0.951506C15.767 0.323322 14.1415 0 12.5 0ZM16.875 7.5C17.3723 7.5 17.8492 7.69754 18.2008 8.04917C18.5525 8.40081 18.75 8.87772 18.75 9.375C18.75 9.87228 18.5525 10.3492 18.2008 10.7008C17.8492 11.0525 17.3723 11.25 16.875 11.25C16.3777 11.25 15.9008 11.0525 15.5492 10.7008C15.1975 10.3492 15 9.87228 15 9.375C15 8.87772 15.1975 8.40081 15.5492 8.04917C15.9008 7.69754 16.3777 7.5 16.875 7.5ZM8.125 7.5C8.62228 7.5 9.09919 7.69754 9.45083 8.04917C9.80246 8.40081 10 8.87772 10 9.375C10 9.87228 9.80246 10.3492 9.45083 10.7008C9.09919 11.0525 8.62228 11.25 8.125 11.25C7.62772 11.25 7.15081 11.0525 6.79917 10.7008C6.44754 10.3492 6.25 9.87228 6.25 9.375C6.25 8.87772 6.44754 8.40081 6.79917 8.04917C7.15081 7.69754 7.62772 7.5 8.125 7.5ZM12.5 19.375C9.5875 19.375 7.1125 17.55 6.1125 15H18.8875C17.875 17.55 15.4125 19.375 12.5 19.375Z" fill="white"/>
</svg>
