<svg width="320" height="182" viewBox="0 0 320 182" fill="none" xmlns="http://www.w3.org/2000/svg">
<path d="M303.438 32.5625H16.5625C12.3356 32.5625 8.28185 30.8834 5.29299 27.8945C2.30413 24.9057 0.625 20.8519 0.625 16.625C0.625 12.3981 2.30413 8.34434 5.29299 5.35548C8.28185 2.36662 12.3356 0.6875 16.5625 0.6875H303.438C307.664 0.6875 311.718 2.36662 314.707 5.35548C317.696 8.34434 319.375 12.3981 319.375 16.625C319.375 20.8519 317.696 24.9057 314.707 27.8945C311.718 30.8834 307.664 32.5625 303.438 32.5625ZM250.312 106.938H69.6875C65.4606 106.938 61.4068 105.258 58.418 102.27C55.4291 99.2806 53.75 95.2269 53.75 91C53.75 86.7731 55.4291 82.7193 58.418 79.7305C61.4068 76.7416 65.4606 75.0625 69.6875 75.0625H250.312C254.539 75.0625 258.593 76.7416 261.582 79.7305C264.571 82.7193 266.25 86.7731 266.25 91C266.25 95.2269 264.571 99.2806 261.582 102.27C258.593 105.258 254.539 106.938 250.312 106.938ZM186.562 181.312H133.438C129.211 181.312 125.157 179.633 122.168 176.645C119.179 173.656 117.5 169.602 117.5 165.375C117.5 161.148 119.179 157.094 122.168 154.105C125.157 151.117 129.211 149.438 133.438 149.438H186.562C190.789 149.438 194.843 151.117 197.832 154.105C200.821 157.094 202.5 161.148 202.5 165.375C202.5 169.602 200.821 173.656 197.832 176.645C194.843 179.633 190.789 181.312 186.562 181.312Z" fill="#535353"/>
</svg>
