<svg width="30" height="29" viewBox="0 0 30 29" fill="none" xmlns="http://www.w3.org/2000/svg">
<path d="M22.8571 28.5714H8.57143V10L18.5714 0L20.3571 1.78571C20.5238 1.95238 20.661 2.17857 20.7686 2.46429C20.8762 2.75 20.9295 3.02381 20.9286 3.28571V3.78571L19.3571 10H27.1429C27.9048 10 28.5714 10.2857 29.1429 10.8571C29.7143 11.4286 30 12.0952 30 12.8571V15.7143C30 15.881 29.9824 16.0595 29.9471 16.25C29.9119 16.4405 29.8581 16.619 29.7857 16.7857L25.5 26.8571C25.2857 27.3333 24.9286 27.7381 24.4286 28.0714C23.9286 28.4048 23.4048 28.5714 22.8571 28.5714ZM5.71429 10V28.5714H0V10H5.71429Z" fill="white"/>
</svg>
