<svg width="87" height="89" viewBox="0 0 87 89" fill="none" xmlns="http://www.w3.org/2000/svg">
<path d="M18.272 66.144C18.272 66.912 18.2507 67.488 18.208 67.872H3.2C3.24267 69.4293 3.584 70.7413 4.224 71.808C4.864 72.8747 5.70667 73.6747 6.752 74.208C7.79733 74.7413 8.93867 75.008 10.176 75.008C11.8827 75.008 13.312 74.592 14.464 73.76C15.616 72.9067 16.3413 71.7547 16.64 70.304H18.144C17.8027 72.0747 16.928 73.5147 15.52 74.624C14.112 75.712 12.3307 76.256 10.176 76.256C8.55467 76.256 7.104 75.8933 5.824 75.168C4.544 74.4427 3.54133 73.408 2.816 72.064C2.09067 70.6987 1.728 69.1093 1.728 67.296C1.728 65.4827 2.08 63.904 2.784 62.56C3.50933 61.216 4.512 60.192 5.792 59.488C7.072 58.7627 8.53333 58.4 10.176 58.4C11.84 58.4 13.28 58.7627 14.496 59.488C15.7333 60.192 16.672 61.1413 17.312 62.336C17.952 63.5093 18.272 64.7787 18.272 66.144ZM16.832 66.688C16.896 65.152 16.6187 63.8507 16 62.784C15.4027 61.7173 14.5813 60.928 13.536 60.416C12.4907 59.8827 11.36 59.616 10.144 59.616C8.928 59.616 7.79733 59.8827 6.752 60.416C5.728 60.928 4.88533 61.7173 4.224 62.784C3.584 63.8507 3.24267 65.152 3.2 66.688H16.832ZM30.976 76.256C29.0347 76.256 27.4453 75.8293 26.208 74.976C24.992 74.1227 24.3093 72.9067 24.16 71.328H25.632C25.7387 72.4587 26.2507 73.3547 27.168 74.016C28.1067 74.6773 29.376 75.008 30.976 75.008C32.2987 75.008 33.344 74.6773 34.112 74.016C34.9013 73.3333 35.296 72.5013 35.296 71.52C35.296 70.8373 35.0827 70.2827 34.656 69.856C34.2507 69.408 33.7387 69.0667 33.12 68.832C32.5013 68.5973 31.6587 68.3413 30.592 68.064C29.312 67.7227 28.2773 67.392 27.488 67.072C26.6987 66.7307 26.0267 66.2293 25.472 65.568C24.9173 64.9067 24.64 64.0213 24.64 62.912C24.64 62.1013 24.8853 61.3547 25.376 60.672C25.8667 59.968 26.5493 59.4133 27.424 59.008C28.2987 58.6027 29.2907 58.4 30.4 58.4C32.2133 58.4 33.6747 58.8587 34.784 59.776C35.9147 60.672 36.5227 61.92 36.608 63.52H35.168C35.104 62.368 34.656 61.4293 33.824 60.704C32.992 59.9787 31.84 59.616 30.368 59.616C29.1307 59.616 28.1067 59.936 27.296 60.576C26.4853 61.216 26.08 61.9947 26.08 62.912C26.08 63.7227 26.304 64.384 26.752 64.896C27.2213 65.3867 27.7867 65.7707 28.448 66.048C29.1307 66.304 30.0267 66.5813 31.136 66.88C32.352 67.2 33.3227 67.52 34.048 67.84C34.7947 68.1387 35.424 68.5867 35.936 69.184C36.448 69.76 36.704 70.5387 36.704 71.52C36.704 72.416 36.4587 73.2267 35.968 73.952C35.4773 74.6773 34.7947 75.2427 33.92 75.648C33.0453 76.0533 32.064 76.256 30.976 76.256ZM45.7942 59.872V71.36C45.7942 72.64 46.0289 73.5253 46.4982 74.016C46.9676 74.4853 47.7996 74.72 48.9942 74.72H50.9462V76H48.7702C47.2556 76 46.1356 75.648 45.4102 74.944C44.7062 74.2187 44.3542 73.024 44.3542 71.36V59.872H41.7302V58.624H44.3542V54.208H45.7942V58.624H50.9462V59.872H45.7942ZM58.04 54.752C57.6987 54.752 57.4107 54.6453 57.176 54.432C56.9413 54.1973 56.824 53.888 56.824 53.504C56.824 53.1413 56.9413 52.8427 57.176 52.608C57.4107 52.3733 57.6987 52.256 58.04 52.256C58.3813 52.256 58.6693 52.3733 58.904 52.608C59.1387 52.8427 59.256 53.1413 59.256 53.504C59.256 53.888 59.1387 54.1973 58.904 54.432C58.6693 54.6453 58.3813 54.752 58.04 54.752ZM58.744 58.624V76H57.304V58.624H58.744ZM65.6867 67.296C65.6867 65.504 66.0387 63.936 66.7427 62.592C67.4681 61.248 68.4601 60.2133 69.7187 59.488C70.9987 58.7627 72.4494 58.4 74.0707 58.4C75.9054 58.4 77.4627 58.848 78.7427 59.744C80.0227 60.64 80.9187 61.7813 81.4307 63.168V58.624H82.8707V76H81.4307V71.424C80.9187 72.832 80.0121 73.9947 78.7107 74.912C77.4307 75.808 75.8841 76.256 74.0707 76.256C72.4494 76.256 70.9987 75.8933 69.7187 75.168C68.4601 74.4213 67.4681 73.376 66.7427 72.032C66.0387 70.6667 65.6867 69.088 65.6867 67.296ZM81.4307 67.296C81.4307 65.7813 81.1107 64.448 80.4707 63.296C79.8521 62.1227 78.9987 61.2267 77.9107 60.608C76.8227 59.968 75.6067 59.648 74.2627 59.648C72.8547 59.648 71.6174 59.9573 70.5507 60.576C69.4841 61.1733 68.6521 62.048 68.0547 63.2C67.4574 64.352 67.1587 65.7173 67.1587 67.296C67.1587 68.8747 67.4574 70.24 68.0547 71.392C68.6521 72.544 69.4841 73.4293 70.5507 74.048C71.6387 74.6667 72.8761 74.976 74.2627 74.976C75.6067 74.976 76.8227 74.6667 77.9107 74.048C79.0201 73.408 79.8841 72.512 80.5027 71.36C81.1214 70.1867 81.4307 68.832 81.4307 67.296Z" fill="white"/>
<g clip-path="url(#clip0_1035_1447)">
<path d="M46.8949 0H27.1783C24.8707 0 23 1.87105 23 4.1791V20.6343C23 22.9424 24.8707 24.8134 27.1783 24.8134H46.8949C49.2025 24.8134 51.0732 22.9424 51.0732 20.6343V4.1791C51.0732 1.87105 49.2025 0 46.8949 0Z" fill="#F40CB3" fill-opacity="0.48"/>
<path d="M59.8207 3.00391H40.1041C37.7965 3.00391 35.9258 4.87495 35.9258 7.18301V23.6382C35.9258 25.9463 37.7965 27.8173 40.1041 27.8173H59.8207C62.1283 27.8173 63.999 25.9463 63.999 23.6382V7.18301C63.999 4.87495 62.1283 3.00391 59.8207 3.00391Z" fill="#06DEB8" fill-opacity="0.48"/>
<path d="M54.2074 10.1865H34.4908C32.1832 10.1865 30.3125 12.0576 30.3125 14.3656V30.8209C30.3125 33.1289 32.1832 35 34.4908 35H54.2074C56.515 35 58.3857 33.1289 58.3857 30.8209V14.3656C58.3857 12.0576 56.515 10.1865 54.2074 10.1865Z" fill="#C50000" fill-opacity="0.48"/>
</g>
<defs>
<clipPath id="clip0_1035_1447">
<rect width="41" height="35" fill="white" transform="translate(23)"/>
</clipPath>
</defs>
</svg>
