<svg width="545" height="722" viewBox="0 0 545 722" fill="none" xmlns="http://www.w3.org/2000/svg">
<g clip-path="url(#clip0_1114_1021)">
<path d="M322.2 246H223.8C210.216 246 199.2 257.016 199.2 270.6V369C199.2 382.584 210.216 393.6 223.8 393.6H322.2C335.784 393.6 346.8 382.584 346.8 369V270.6C346.8 257.016 335.784 246 322.2 246ZM174.6 24.6C174.6 11.0162 163.584 0 150 0H51.6C38.0162 0 27 11.0162 27 24.6V123C27 136.584 38.0162 147.6 51.6 147.6H125.185L181.427 246.031C189.96 231.378 205.658 221.4 223.8 221.4H224.015L174.6 134.923V98.4H346.8V49.2H174.6V24.6ZM494.4 0H396C382.416 0 371.4 11.0162 371.4 24.6V123C371.4 136.584 382.416 147.6 396 147.6H494.4C507.984 147.6 519 136.584 519 123V24.6C519 11.0162 507.984 0 494.4 0Z" fill="#AF0880"/>
<path d="M504.498 59.0399C500.02 63.1015 505.149 40.1148 493.419 27.1842C481.689 14.2536 459.656 15.5379 464.133 11.4763C468.61 7.4147 489.796 6.89945 501.526 19.83C513.256 32.7606 508.975 54.9783 504.498 59.0399Z" fill="#F4F4F4"/>
</g>
<path d="M65.4 673.2C54.0667 673.2 44.0667 670.867 35.4 666.2C26.8667 661.533 20.2 655.133 15.4 647C10.7333 638.867 8.4 629.533 8.4 619C8.4 608.467 10.6667 599.133 15.2 591C19.8667 582.867 26.2 576.533 34.2 572C42.3333 567.333 51.4667 565 61.6 565C71.8667 565 80.9333 567.267 88.8 571.8C96.6667 576.333 102.8 582.733 107.2 591C111.733 599.133 114 608.667 114 619.6C114 620.4 113.933 621.333 113.8 622.4C113.8 623.467 113.733 624.467 113.6 625.4H23.4V611.6H103.6L95.8 616.4C95.9333 609.6 94.5333 603.533 91.6 598.2C88.6667 592.867 84.6 588.733 79.4 585.8C74.3333 582.733 68.4 581.2 61.6 581.2C54.9333 581.2 49 582.733 43.8 585.8C38.6 588.733 34.5333 592.933 31.6 598.4C28.6667 603.733 27.2 609.867 27.2 616.8V620C27.2 627.067 28.8 633.4 32 639C35.3333 644.467 39.9333 648.733 45.8 651.8C51.6667 654.867 58.4 656.4 66 656.4C72.2667 656.4 77.9333 655.333 83 653.2C88.2 651.067 92.7333 647.867 96.6 643.6L107.2 656C102.4 661.6 96.4 665.867 89.2 668.8C82.1333 671.733 74.2 673.2 65.4 673.2ZM187.061 673.2C178.261 673.2 169.861 672 161.861 669.6C153.994 667.2 147.794 664.267 143.261 660.8L151.261 645.6C155.794 648.667 161.394 651.267 168.061 653.4C174.728 655.533 181.528 656.6 188.461 656.6C197.394 656.6 203.794 655.333 207.661 652.8C211.661 650.267 213.661 646.733 213.661 642.2C213.661 638.867 212.461 636.267 210.061 634.4C207.661 632.533 204.461 631.133 200.461 630.2C196.594 629.267 192.261 628.467 187.461 627.8C182.661 627 177.861 626.067 173.061 625C168.261 623.8 163.861 622.2 159.861 620.2C155.861 618.067 152.661 615.2 150.261 611.6C147.861 607.867 146.661 602.933 146.661 596.8C146.661 590.4 148.461 584.8 152.061 580C155.661 575.2 160.728 571.533 167.261 569C173.928 566.333 181.794 565 190.861 565C197.794 565 204.794 565.867 211.861 567.6C219.061 569.2 224.928 571.533 229.461 574.6L221.261 589.8C216.461 586.6 211.461 584.4 206.261 583.2C201.061 582 195.861 581.4 190.661 581.4C182.261 581.4 175.994 582.8 171.861 585.6C167.728 588.267 165.661 591.733 165.661 596C165.661 599.6 166.861 602.4 169.261 604.4C171.794 606.267 174.994 607.733 178.861 608.8C182.861 609.867 187.261 610.8 192.061 611.6C196.861 612.267 201.661 613.2 206.461 614.4C211.261 615.467 215.594 617 219.461 619C223.461 621 226.661 623.8 229.061 627.4C231.594 631 232.861 635.8 232.861 641.8C232.861 648.2 230.994 653.733 227.261 658.4C223.528 663.067 218.261 666.733 211.461 669.4C204.661 671.933 196.528 673.2 187.061 673.2ZM309.256 673.2C298.59 673.2 290.323 670.333 284.456 664.6C278.59 658.867 275.656 650.667 275.656 640V542.8H294.856V639.2C294.856 644.933 296.256 649.333 299.056 652.4C301.99 655.467 306.123 657 311.456 657C317.456 657 322.456 655.333 326.456 652L332.456 665.8C329.523 668.333 325.99 670.2 321.856 671.4C317.856 672.6 313.656 673.2 309.256 673.2ZM257.656 581.8V566H325.256V581.8H257.656ZM371.669 672V566H390.869V672H371.669ZM381.269 545.6C377.535 545.6 374.402 544.4 371.869 542C369.469 539.6 368.269 536.667 368.269 533.2C368.269 529.6 369.469 526.6 371.869 524.2C374.402 521.8 377.535 520.6 381.269 520.6C385.002 520.6 388.069 521.8 390.469 524.2C393.002 526.467 394.269 529.333 394.269 532.8C394.269 536.4 393.069 539.467 390.669 542C388.269 544.4 385.135 545.6 381.269 545.6ZM509.328 672V649.6L508.328 645.4V607.2C508.328 599.067 505.928 592.8 501.128 588.4C496.461 583.867 489.395 581.6 479.928 581.6C473.661 581.6 467.528 582.667 461.528 584.8C455.528 586.8 450.461 589.533 446.328 593L438.328 578.6C443.795 574.2 450.328 570.867 457.928 568.6C465.661 566.2 473.728 565 482.128 565C496.661 565 507.861 568.533 515.728 575.6C523.595 582.667 527.528 593.467 527.528 608V672H509.328ZM474.528 673.2C466.661 673.2 459.728 671.867 453.728 669.2C447.861 666.533 443.328 662.867 440.128 658.2C436.928 653.4 435.328 648 435.328 642C435.328 636.267 436.661 631.067 439.328 626.4C442.128 621.733 446.595 618 452.728 615.2C458.995 612.4 467.395 611 477.928 611H511.528V624.8H478.728C469.128 624.8 462.661 626.4 459.328 629.6C455.995 632.8 454.328 636.667 454.328 641.2C454.328 646.4 456.395 650.6 460.528 653.8C464.661 656.867 470.395 658.4 477.728 658.4C484.928 658.4 491.195 656.8 496.528 653.6C501.995 650.4 505.928 645.733 508.328 639.6L512.128 652.8C509.595 659.067 505.128 664.067 498.728 667.8C492.328 671.4 484.261 673.2 474.528 673.2Z" fill="white"/>
<defs>
<clipPath id="clip0_1114_1021">
<rect width="492" height="393.6" fill="white" transform="translate(27)"/>
</clipPath>
</defs>
</svg>
