<svg width="340" height="340" viewBox="0 0 340 340" fill="none" xmlns="http://www.w3.org/2000/svg">
<path d="M313.438 111.562H26.5625C22.3356 111.562 18.2818 109.883 15.293 106.895C12.3041 103.906 10.625 99.8519 10.625 95.625C10.625 91.3981 12.3041 87.3443 15.293 84.3555C18.2818 81.3666 22.3356 79.6875 26.5625 79.6875H313.438C317.664 79.6875 321.718 81.3666 324.707 84.3555C327.696 87.3443 329.375 91.3981 329.375 95.625C329.375 99.8519 327.696 103.906 324.707 106.895C321.718 109.883 317.664 111.562 313.438 111.562ZM260.312 185.938H79.6875C75.4606 185.938 71.4068 184.258 68.418 181.27C65.4291 178.281 63.75 174.227 63.75 170C63.75 165.773 65.4291 161.719 68.418 158.73C71.4068 155.742 75.4606 154.062 79.6875 154.062H260.312C264.539 154.062 268.593 155.742 271.582 158.73C274.571 161.719 276.25 165.773 276.25 170C276.25 174.227 274.571 178.281 271.582 181.27C268.593 184.258 264.539 185.938 260.312 185.938ZM196.562 260.312H143.438C139.211 260.312 135.157 258.633 132.168 255.645C129.179 252.656 127.5 248.602 127.5 244.375C127.5 240.148 129.179 236.094 132.168 233.105C135.157 230.117 139.211 228.438 143.438 228.438H196.562C200.789 228.438 204.843 230.117 207.832 233.105C210.821 236.094 212.5 240.148 212.5 244.375C212.5 248.602 210.821 252.656 207.832 255.645C204.843 258.633 200.789 260.312 196.562 260.312Z" fill="white"/>
</svg>
