<svg width="48" height="48" viewBox="0 0 48 48" fill="none" xmlns="http://www.w3.org/2000/svg">
<path d="M48 10.6667V42.6667C48 44.1333 47.4782 45.3893 46.4347 46.4347C45.3911 47.48 44.1351 48.0018 42.6667 48H5.33333C3.86667 48 2.61156 47.4782 1.568 46.4347C0.524445 45.3911 0.00177778 44.1351 0 42.6667V5.33333C0 3.86667 0.522667 2.61156 1.568 1.568C2.61333 0.524445 3.86844 0.00177778 5.33333 0H37.3333L48 10.6667ZM24 40C26.2222 40 28.1111 39.2222 29.6667 37.6667C31.2222 36.1111 32 34.2222 32 32C32 29.7778 31.2222 27.8889 29.6667 26.3333C28.1111 24.7778 26.2222 24 24 24C21.7778 24 19.8889 24.7778 18.3333 26.3333C16.7778 27.8889 16 29.7778 16 32C16 34.2222 16.7778 36.1111 18.3333 37.6667C19.8889 39.2222 21.7778 40 24 40ZM8 18.6667H32V8H8V18.6667Z" fill="#A7A7A7"/>
</svg>
