<?xml version="1.0" encoding="utf-8"?>
<!-- Generator: Adobe Illustrator 26.0.3, SVG Export Plug-In . SVG Version: 6.00 Build 0)  -->
<svg version="1.0" id="katman_1" xmlns="http://www.w3.org/2000/svg" xmlns:xlink="http://www.w3.org/1999/xlink" x="0px" y="0px"
	 viewBox="0 0 141.1 100.3" style="enable-background:new 0 0 141.1 100.3;" xml:space="preserve">
<style type="text/css">
	.st0{fill-rule:evenodd;clip-rule:evenodd;fill:#2A53E1;}
	.st1{fill-rule:evenodd;clip-rule:evenodd;fill:#2E6AEE;}
	.st2{fill-rule:evenodd;clip-rule:evenodd;fill:#EBEBEB;}
	.st3{fill-rule:evenodd;clip-rule:evenodd;}
	.st4{fill-rule:evenodd;clip-rule:evenodd;fill:#FFFFFF;}
	.st5{fill-rule:evenodd;clip-rule:evenodd;fill:#E24E30;}
	.st6{fill-rule:evenodd;clip-rule:evenodd;fill:#EF6635;}
	.st7{fill-rule:evenodd;clip-rule:evenodd;fill:#E8E9F2;}
</style>
<g>
	<path class="st0" d="M47.9,77.4L32.3,73l-3.5-39.4h38.4L63.7,73L47.9,77.4z"/>
	<path class="st1" d="M60.7,70.5l3-33.7H48V74L60.7,70.5z"/>
	<path class="st2" d="M36.8,51.4l0.4,4.8H48v-4.8H36.8z M35.9,41.7l0.4,4.8H48v-4.8C48,41.7,35.9,41.7,35.9,41.7z M48,64L48,64
		l-5.4-1.4l-0.3-3.9h-4.8l0.7,7.6L48,69l0,0C48,69,48,64,48,64z"/>
	<path class="st3" d="M37.8,22.9h5.8v2.4h-3.4v2.5h3.4v2.5h-5.8V22.9z M44.8,22.9h5.8V25h-3.4v0.4h3.4v4.9h-5.8v-2.2h3.4v-0.4h-3.4
		V22.9z M51.8,22.9h5.8V25h-3.4v0.4h3.4v4.9h-5.8v-2.2h3.4v-0.4h-3.4V22.9z"/>
	<path class="st4" d="M59.1,51.4l0.9-9.8h-12v4.8h6.8l-0.4,4.9h-6.3v4.8h5.9l-0.6,6.3L47.9,64v5l9.9-2.7l0.1-0.8L59,52.7L59.1,51.4z
		"/>
	<path class="st5" d="M112.5,33.6L109,73l-15.7,4.4L77.6,73l-3.5-39.4L112.5,33.6z"/>
	<path class="st6" d="M93.3,74l12.7-3.5l3-33.7H93.3V74z"/>
	<path class="st7" d="M86.5,46.5h6.8v-4.8H81.3l0.1,1.3l1.2,13.3h10.8v-4.8h-6.4C86.9,51.4,86.5,46.5,86.5,46.5z M87.6,58.7h-4.8
		l0.7,7.6l9.8,2.8l0,0v-5l0,0l-5.3-1.5C87.9,62.5,87.6,58.7,87.6,58.7z"/>
	<path class="st3" d="M77.7,22.9h2.4v2.4h2.2v-2.4h2.4v7.4h-2.4v-2.5h-2.2v2.5h-2.4V22.9z M88,25.3h-2.2v-2.4h6.7v2.4h-2.2v4.9H88
		V25.3z M93.7,22.9h2.6l1.6,2.6l1.6-2.6h2.5v7.4h-2.4v-3.6l-1.7,2.6h0l-1.7-2.6v3.6h-2.4V22.9z M103.1,22.9h2.4v4.9h3.4v2.4h-5.9
		V22.9z"/>
	<path class="st4" d="M93.3,56.3h5.9l-0.6,6.3L93.3,64v5l9.8-2.7l0.1-0.8l1.1-12.7l0.1-1.3H93.3C93.3,51.4,93.3,56.3,93.3,56.3z
		 M93.3,46.5L93.3,46.5l11.6,0l0.1-1.1l0.2-2.4l0.1-1.3h-12V46.5z"/>
</g>
</svg>
