<svg width="361" height="361" viewBox="0 0 361 361" fill="none" xmlns="http://www.w3.org/2000/svg">
<path d="M214.341 248.188V225.625H225.622V146.656H214.341V124.094H259.466V146.656H248.185V225.625H259.466V248.188H214.341ZM174.857 248.188H197.419L157.935 124.094H124.091L84.6406 248.188H107.203L113.983 225.625H167.885L174.857 248.188ZM120.774 203.062L139.14 142.02L142.028 141.986L160.913 203.062H120.774ZM360.997 45.125H315.872V0H293.31V45.125H248.185V67.6875H293.31V112.812H315.872V67.6875H360.997V45.125ZM338.435 135.375H360.997V157.938H338.435V135.375ZM203.06 0H225.622V22.5625H203.06V0Z" fill="white"/>
<path d="M361 361H0V0H157.938V22.5625H22.5625V338.438H338.438V203.062H361V361Z" fill="white"/>
</svg>
