<svg width="496" height="362" viewBox="0 0 496 362" fill="none" xmlns="http://www.w3.org/2000/svg">
<path d="M371.087 0.00100708C389.255 40.685 396.62 83.891 403.508 127.211C402.244 127.57 400.979 127.93 399.714 128.293C398.804 125.759 397.73 123.272 397.007 120.683C391.789 102.03 386.527 83.387 381.533 64.672C379.736 57.939 375.498 54.588 369.437 51.291C360.536 46.449 352.124 40.207 344.747 33.245C340.04 28.805 336.012 26.096 329.334 26.167C284.874 26.637 240.409 26.682 195.95 27.091C192.987 27.121 189.32 28.215 187.222 30.156C179.133 37.64 171.551 45.67 161.58 55.712C187.88 119.752 201.102 189.552 195.425 263.756C182.799 255.672 173.025 249.276 172.444 232.338C169.54 147.677 143.424 71.113 88.864 5.23C87.636 3.748 87.026 1.754 86.126 0L371.087 0.00100708ZM40.73 32.646C53.393 32.646 66.062 32.446 78.714 32.818C81.224 32.89 84.736 34.486 85.991 36.498C123.827 97.288 153.325 161.133 157.146 234.18C157.164 234.47 156.864 234.774 155.784 236.896C133.172 159.603 92.38 94.161 39.912 35.506L40.73 32.646ZM0 85.828C18.09 85.17 33.39 84.51 48.692 84.226C50.233 84.196 52.052 86.235 53.342 87.669C83.19 120.871 110.278 155.95 126.975 197.904C130.152 205.884 132.326 214.264 134.964 222.459C100.379 168.034 52.254 127.337 0 85.827V85.828ZM194.474 361.598C162.993 311.532 132.671 263.308 102.346 215.085L103.458 213.657C106 215.704 160.08 259.069 184.368 278.959C191.134 284.5 196.246 284.4 203.283 278.685C285.867 211.6 378.02 160.823 475.866 119.876C481.089 117.691 486.506 115.96 491.849 114.06C493.035 113.64 494.289 113.406 496 113.838C382.377 179.825 273.978 252.077 194.474 361.598Z" fill="white"/>
</svg>
