<svg width="385" height="385" viewBox="0 0 385 385" fill="none" xmlns="http://www.w3.org/2000/svg">
<path d="M66.1492 264.7L156.399 210.55M228.599 174.45L318.849 120.3M192.499 66.1502V156.4M192.499 228.6V318.85M66.1492 120.3L156.399 174.45M228.599 210.55L318.849 264.7M345.924 138.35V237.625M219.574 345.925L318.849 291.775M57.1242 291.775L165.424 345.925M39.0742 246.65V138.35M57.1242 93.2252L165.424 39.0752M327.874 93.2252L219.574 39.0752" stroke="white" stroke-width="22.5625" stroke-linecap="round" stroke-linejoin="round"/>
<path d="M192.501 66.15C207.454 66.15 219.576 54.0281 219.576 39.075C219.576 24.1219 207.454 12 192.501 12C177.548 12 165.426 24.1219 165.426 39.075C165.426 54.0281 177.548 66.15 192.501 66.15Z" stroke="white" stroke-width="22.5625" stroke-linecap="round" stroke-linejoin="round"/>
<path d="M192.501 373C207.454 373 219.576 360.878 219.576 345.925C219.576 330.972 207.454 318.85 192.501 318.85C177.548 318.85 165.426 330.972 165.426 345.925C165.426 360.878 177.548 373 192.501 373Z" stroke="white" stroke-width="22.5625" stroke-linecap="round" stroke-linejoin="round"/>
<path d="M39.075 138.35C54.0281 138.35 66.15 126.228 66.15 111.275C66.15 96.3221 54.0281 84.2002 39.075 84.2002C24.1219 84.2002 12 96.3221 12 111.275C12 126.228 24.1219 138.35 39.075 138.35Z" stroke="white" stroke-width="22.5625" stroke-linecap="round" stroke-linejoin="round"/>
<path d="M345.923 138.35C360.876 138.35 372.998 126.228 372.998 111.275C372.998 96.3221 360.876 84.2002 345.923 84.2002C330.97 84.2002 318.848 96.3221 318.848 111.275C318.848 126.228 330.97 138.35 345.923 138.35Z" stroke="white" stroke-width="22.5625" stroke-linecap="round" stroke-linejoin="round"/>
<path d="M345.923 300.8C360.876 300.8 372.998 288.679 372.998 273.725C372.998 258.772 360.876 246.65 345.923 246.65C330.97 246.65 318.848 258.772 318.848 273.725C318.848 288.679 330.97 300.8 345.923 300.8Z" stroke="white" stroke-width="22.5625" stroke-linecap="round" stroke-linejoin="round"/>
<path d="M39.075 300.8C54.0281 300.8 66.15 288.679 66.15 273.725C66.15 258.772 54.0281 246.65 39.075 246.65C24.1219 246.65 12 258.772 12 273.725C12 288.679 24.1219 300.8 39.075 300.8Z" stroke="white" stroke-width="22.5625" stroke-linecap="round" stroke-linejoin="round"/>
<path d="M192.498 151.888L228.598 172.194V212.806L192.498 233.113L156.398 212.806V172.194L192.498 151.888Z" stroke="white" stroke-width="22.5625" stroke-linecap="round" stroke-linejoin="round"/>
</svg>
